<svg id="logo_hui" xmlns="http://www.w3.org/2000/svg" viewBox="0 0 179.34 63.6"><defs><style>.cls-1{fill:none;}.cls-2{fill:#fff;}.cls-3{fill:#fff;}</style></defs><title>logo_hui</title><path class="cls-1" d="M736.83,602.65a2.56,2.56,0,0,0-1-.75,2.8,2.8,0,0,0-1.2-.25,2.85,2.85,0,0,0-1.21.25,2.64,2.64,0,0,0-1,.75,3.38,3.38,0,0,0-.62,1.21,5.39,5.39,0,0,0-.23,1.63,5.3,5.3,0,0,0,.23,1.61,3.25,3.25,0,0,0,.62,1.2,2.67,2.67,0,0,0,1,.75,3,3,0,0,0,2.41,0,2.61,2.61,0,0,0,.94-.75,3.42,3.42,0,0,0,.63-1.2,5.31,5.31,0,0,0,.22-1.61,5.4,5.4,0,0,0-.22-1.63A3.56,3.56,0,0,0,736.83,602.65Z" transform="translate(-581 -551.11)"/><path class="cls-1" d="M699.05,582.12l6.77-3.82h-9.73a43.07,43.07,0,0,1-5,8.51q4.17-.34,11.28-.69Q700.78,584.2,699.05,582.12Z" transform="translate(-581 -551.11)"/><path class="cls-2" d="M707.21,593.24l2.08,3.81,8-4.34a112.93,112.93,0,0,0-10.59-14.41h9.37v-8.68H699.91V566.5h13.37v-8.17H699.91v-4.68h-8.33v4.68H678.21v8.17h13.37v3.12h-16v8.68h11.29a24.35,24.35,0,0,1-2.95,4,17.18,17.18,0,0,1-7.64,5l3.65,9.55,8.68-1.21Q694.71,594.8,707.21,593.24ZM696.09,578.3h9.73l-6.77,3.82q1.73,2.08,3.29,4-7.11.35-11.28.69A43.07,43.07,0,0,0,696.09,578.3Z" transform="translate(-581 -551.11)"/><polygon class="cls-2" points="163.01 35.35 163.01 23.02 178.12 23.02 178.12 13.47 163.01 13.47 163.01 2.53 153.99 2.53 153.99 35.35 139.57 35.35 139.57 45.94 179.34 45.94 179.34 35.35 163.01 35.35"/><path class="cls-3" d="M666,561.29A27,27,0,0,0,628,557L615.2,567.2l12.47,15.65,12.78-10.19c3.89-3.1,8.31-4,11.41-.14s1.22,8-2.67,11.09L636.41,593.8l12.48,15.65,12.78-10.19a27,27,0,0,0,4.28-38Z" transform="translate(-581 -551.11)"/><path class="cls-3" d="M612.39,589.9c-3.89,3.1-8.31,4-11.41.14s-1.21-8,2.68-11.1l12.78-10.19L604,553.1l-12.78,10.19a27,27,0,0,0-4.28,38h0a27,27,0,0,0,38,4.28l12.78-10.19-12.48-15.65Z" transform="translate(-581 -551.11)"/><polygon class="cls-2" points="100.4 50.91 106.69 50.91 101.14 63.33 102.83 63.33 108.56 50.51 108.56 49.42 100.4 49.42 100.4 50.91"/><path class="cls-2" d="M697.86,608.11a2.73,2.73,0,0,0-.89-.63,3.84,3.84,0,0,0-1.06-.27v0a3.58,3.58,0,0,0,1.11-.53,3,3,0,0,0,.74-.76,3,3,0,0,0,.41-.92,4.46,4.46,0,0,0,.12-1,3.51,3.51,0,0,0-.29-1.47,3.29,3.29,0,0,0-.84-1.16,3.91,3.91,0,0,0-1.33-.75,5.58,5.58,0,0,0-1.8-.27,8,8,0,0,0-1.37.13,7.65,7.65,0,0,0-1.63.49v1.37a9.3,9.3,0,0,1,1.42-.44,5.8,5.8,0,0,1,1.42-.17,4.08,4.08,0,0,1,1.07.13,2.35,2.35,0,0,1,.87.42,1.91,1.91,0,0,1,.58.71,2.2,2.2,0,0,1,.22,1,3,3,0,0,1-.19,1,2.27,2.27,0,0,1-.61.84,3.06,3.06,0,0,1-1.06.57,5.26,5.26,0,0,1-1.53.2h-.65V608h1.11a4.34,4.34,0,0,1,2.49.6,2.19,2.19,0,0,1,.86,1.95,3,3,0,0,1-.17,1.05,2.14,2.14,0,0,1-.56.89,2.67,2.67,0,0,1-1,.62,4.65,4.65,0,0,1-1.6.24,7.69,7.69,0,0,1-1.38-.14,7.15,7.15,0,0,1-1.47-.47v1.37a4.77,4.77,0,0,0,1.35.46,7.65,7.65,0,0,0,1.61.16,6.93,6.93,0,0,0,2.13-.3,4.33,4.33,0,0,0,1.54-.85,3.53,3.53,0,0,0,.95-1.33,4.59,4.59,0,0,0,.32-1.73,3.73,3.73,0,0,0-.24-1.4A2.93,2.93,0,0,0,697.86,608.11Z" transform="translate(-581 -551.11)"/><rect class="cls-2" x="120.42" y="49.42" width="1.61" height="9.88"/><rect class="cls-2" x="120.42" y="46" width="1.61" height="1.79"/><path class="cls-2" d="M710.74,609.27a3.74,3.74,0,0,1-1.47-.27,3,3,0,0,1-1-.77,3.48,3.48,0,0,1-.64-1.17,5,5,0,0,1-.21-1.48,5.2,5.2,0,0,1,.29-1.85,3.28,3.28,0,0,1,.75-1.19,2.79,2.79,0,0,1,1.06-.65,3.82,3.82,0,0,1,1.2-.2,5.26,5.26,0,0,1,1.12.12,9.67,9.67,0,0,1,1.21.38v-1.34a4.16,4.16,0,0,0-1.13-.42,6.06,6.06,0,0,0-1.37-.15,5.38,5.38,0,0,0-1.11.12,4.17,4.17,0,0,0-1.11.38,4.71,4.71,0,0,0-1,.68,4.39,4.39,0,0,0-.83,1,5.3,5.3,0,0,0-.55,1.37,6.81,6.81,0,0,0-.2,1.76,6,6,0,0,0,.38,2.27,4.55,4.55,0,0,0,1,1.58,4.22,4.22,0,0,0,1.56.92,5.83,5.83,0,0,0,1.88.3,6.51,6.51,0,0,0,.77,0,7.34,7.34,0,0,0,.73-.13,4.73,4.73,0,0,0,.63-.18,2.91,2.91,0,0,0,.46-.21v-1.34a7.43,7.43,0,0,1-1.19.37A5.69,5.69,0,0,1,710.74,609.27Z" transform="translate(-581 -551.11)"/><rect class="cls-2" x="134.85" y="57.27" width="1.98" height="2.03"/><path class="cls-2" d="M725.7,609.27a3.69,3.69,0,0,1-1.46-.27,3,3,0,0,1-1.06-.77,3.3,3.3,0,0,1-.63-1.17,4.73,4.73,0,0,1-.22-1.48,5.2,5.2,0,0,1,.29-1.85,3.28,3.28,0,0,1,.75-1.19,2.87,2.87,0,0,1,1.06-.65,3.87,3.87,0,0,1,1.2-.2,5.19,5.19,0,0,1,1.12.12,9.67,9.67,0,0,1,1.21.38v-1.34a4.09,4.09,0,0,0-1.12-.42,6.21,6.21,0,0,0-1.38-.15,5.38,5.38,0,0,0-1.11.12,4.17,4.17,0,0,0-1.11.38,5,5,0,0,0-1,.68,4.12,4.12,0,0,0-.82,1,5.31,5.31,0,0,0-.56,1.37,7.28,7.28,0,0,0-.2,1.76,6.24,6.24,0,0,0,.38,2.27,4.55,4.55,0,0,0,1.05,1.58,4.39,4.39,0,0,0,1.56.92,5.85,5.85,0,0,0,1.89.3,6.74,6.74,0,0,0,.77,0c.25,0,.49-.08.72-.13a4.73,4.73,0,0,0,.63-.18,3.07,3.07,0,0,0,.47-.21v-1.34a7.24,7.24,0,0,1-1.2.37A5.69,5.69,0,0,1,725.7,609.27Z" transform="translate(-581 -551.11)"/><path class="cls-2" d="M738.12,601.71a4.06,4.06,0,0,0-1.48-1.06,4.93,4.93,0,0,0-2-.37,4.83,4.83,0,0,0-1.94.37,4.15,4.15,0,0,0-1.48,1.06,4.82,4.82,0,0,0-.94,1.64,7.14,7.14,0,0,0,0,4.26,4.51,4.51,0,0,0,.93,1.63,4.15,4.15,0,0,0,1.48,1.06,4.91,4.91,0,0,0,2,.37,4.78,4.78,0,0,0,1.93-.37,4,4,0,0,0,1.47-1.06,4.68,4.68,0,0,0,.94-1.63,6.24,6.24,0,0,0,.34-2.12,6.54,6.54,0,0,0-.33-2.14A4.78,4.78,0,0,0,738.12,601.71Zm-.66,5.39a3.42,3.42,0,0,1-.63,1.2,2.61,2.61,0,0,1-.94.75,3,3,0,0,1-2.41,0,2.67,2.67,0,0,1-1-.75,3.25,3.25,0,0,1-.62-1.2,5.3,5.3,0,0,1-.23-1.61,5.39,5.39,0,0,1,.23-1.63,3.38,3.38,0,0,1,.62-1.21,2.64,2.64,0,0,1,1-.75,2.85,2.85,0,0,1,1.21-.25,2.8,2.8,0,0,1,1.2.25,2.56,2.56,0,0,1,1,.75,3.56,3.56,0,0,1,.63,1.21,5.4,5.4,0,0,1,.22,1.63A5.31,5.31,0,0,1,737.46,607.1Z" transform="translate(-581 -551.11)"/><path class="cls-2" d="M755.32,601a2.89,2.89,0,0,0-1.08-.54,4.37,4.37,0,0,0-1.1-.14,3.64,3.64,0,0,0-2,.52,5.27,5.27,0,0,0-1.5,1.45h0a3.39,3.39,0,0,0-1.12-1.44,3,3,0,0,0-1.83-.53,4.08,4.08,0,0,0-1,.12,3.45,3.45,0,0,0-.86.35,3.71,3.71,0,0,0-.71.52,7.21,7.21,0,0,0-.59.64h0l-.31-1.37h-1.25v9.87h1.62v-7a4.52,4.52,0,0,1,1.26-1.28,2.82,2.82,0,0,1,1.57-.46,2.41,2.41,0,0,1,.83.13,1.65,1.65,0,0,1,.64.43,1.94,1.94,0,0,1,.4.74,3.92,3.92,0,0,1,.14,1.1v6.35H750v-7a4.58,4.58,0,0,1,1.28-1.28,2.8,2.8,0,0,1,1.57-.46,2.41,2.41,0,0,1,.83.13,1.61,1.61,0,0,1,.63.43,2,2,0,0,1,.41.74,3.92,3.92,0,0,1,.14,1.1v6.35h1.61V603.8a4.28,4.28,0,0,0-.32-1.77A3.12,3.12,0,0,0,755.32,601Z" transform="translate(-581 -551.11)"/></svg>