<svg xmlns="http://www.w3.org/2000/svg" viewBox="0 0 296.82 94.88"><defs><style>.e61380ce-72b9-4aa0-9603-9e3dddaa5d5c{fill:#1e7bba;}</style></defs><title>z01-com</title><g id="47c1e93a-ca8f-402d-b86b-309343b676a1" data-name="zoomlaCMS"><g id="b33592fc-6869-4616-8b20-32a2492d0e07" data-name="logo"><g id="02576459-e547-4624-9e1a-eca6a24085b8" data-name="icon"><path class="e61380ce-72b9-4aa0-9603-9e3dddaa5d5c" d="M42.46,84.91A42.46,42.46,0,1,1,84.91,42.46,42.5,42.5,0,0,1,42.46,84.91Zm0-81.67A39.22,39.22,0,1,0,81.67,42.46,39.26,39.26,0,0,0,42.46,3.24Z"/><path class="e61380ce-72b9-4aa0-9603-9e3dddaa5d5c" d="M42.46,94.88C19.36,94.88.57,74.2.57,48.78H3.81c0,23.63,17.34,42.86,38.65,42.86S81.11,72.41,81.11,48.78h3.24C84.35,74.2,65.56,94.88,42.46,94.88Z"/><rect class="e61380ce-72b9-4aa0-9603-9e3dddaa5d5c" x="41.13" y="16.59" width="3.24" height="52.6"/><path class="e61380ce-72b9-4aa0-9603-9e3dddaa5d5c" d="M42.75,63.59c-10.74,0-16.19-5.31-16.19-15.77H29.8c0,5.83,1.47,12.53,13,12.53,10.54,0,12.11-4.63,12.11-7.39,0-2.26,0-9.13-12.27-10.32-13.41-1.29-14.78-8.51-14.74-11.55,0-.18.17-11.76,14.9-11.76,11.52,0,14.71,9.55,14.78,14.58H54.29c0-.46-.36-11.34-11.54-11.34-11.53,0-11.66,8.11-11.66,8.45-.05,4.64,4.25,7.67,11.81,8.4C49.84,40.09,58.1,43,58.1,53,58.1,55.46,57,63.59,42.75,63.59Z"/><rect class="e61380ce-72b9-4aa0-9603-9e3dddaa5d5c" x="63.76" y="76.25" width="3.24" height="8.97"/><rect class="e61380ce-72b9-4aa0-9603-9e3dddaa5d5c" x="52.54" y="81.59" width="3.24" height="9.76"/><rect class="e61380ce-72b9-4aa0-9603-9e3dddaa5d5c" x="41.13" y="83.29" width="3.24" height="9.76"/><rect class="e61380ce-72b9-4aa0-9603-9e3dddaa5d5c" x="29.78" y="81.59" width="3.24" height="9.76"/><rect class="e61380ce-72b9-4aa0-9603-9e3dddaa5d5c" x="18.06" y="75.85" width="3.24" height="9.76"/></g><g id="8e427f6d-e7de-45b9-a9b0-0c20f0656d22" data-name="title"><path class="e61380ce-72b9-4aa0-9603-9e3dddaa5d5c" d="M104.66,46.76,99.79,60H91.26l4.87-13.2ZM119.9,12.43h17.47v9.34H119.9V24h15.23V45.34H95.93V24h14.22V9.18h9.75Zm-14.63,24h20.52V33H105.27ZM114,46.76,119.09,60h-8.54l-4.87-13.2Zm10.76,0L129.65,60h-8.33l-5.08-13.2Zm10.36,0L140,60h-8.53l-4.88-13.2Z"/><path class="e61380ce-72b9-4aa0-9603-9e3dddaa5d5c" d="M174.94,8.77l18.29,19.1h-5.69V29.7H174.13v8.93h16.45v1.22H174.13V58.34h2.64l1.83-14h11l-2,14h5.69v1.21H142.44V58.34h5.69l-2-14h11l1.83,14h2.64V39.85H145.09V38.63h16.45V29.7H148.13V27.87h-5.69l18.08-19.1ZM157.27,27.46H178.6L167.83,16.29Z"/><path class="e61380ce-72b9-4aa0-9603-9e3dddaa5d5c" d="M195.26,31.93,199.73,9h10l-2,9.75h14l-6.29,37a5.07,5.07,0,0,1-1.63,2.84,4.67,4.67,0,0,1-3.45,1.22H196.68V58.13h6.5a1.94,1.94,0,0,0,1.42-.61,3.18,3.18,0,0,0,.81-1.82l.61-6.3H198.3l-2.23-13.61h9.14L206.83,46l4.88-25h-4.27l-2.23,11ZM223.29,9h10.76V59.76H223.29Zm11.58,10.36h7.92L244,50h-7.93Z"/><path class="e61380ce-72b9-4aa0-9603-9e3dddaa5d5c" d="M256.4,8.37l3.86,12H249.9L246,8.37Zm0,14.83,3.86,12.18H249.9L246,23.2ZM260.26,39,256.4,59H246L249.9,39ZM296.82,10.2v9.34H274.07V48.38h22.75V59l-32.09.2-.21-48.95Z"/></g><path class="e61380ce-72b9-4aa0-9603-9e3dddaa5d5c" d="M113.77,69.17a3.58,3.58,0,0,0-1.71-.42c-1.77,0-2.65,1.09-2.65,3.29v2.38h3.73v2.33h-3.73V90.36h-2.8V76.75h-2.73V74.42h2.73V71.91a5.39,5.39,0,0,1,1.48-4,5.08,5.08,0,0,1,3.75-1.47,5.59,5.59,0,0,1,1.93.28Z"/><path class="e61380ce-72b9-4aa0-9603-9e3dddaa5d5c" d="M117.72,82.56a8.59,8.59,0,0,1,2.21-6.23,7.9,7.9,0,0,1,6-2.29,7.29,7.29,0,0,1,5.63,2.2,8.58,8.58,0,0,1,2,6.08,8.5,8.5,0,0,1-2.18,6.09,7.6,7.6,0,0,1-5.83,2.33,7.49,7.49,0,0,1-5.71-2.25A8.24,8.24,0,0,1,117.72,82.56Zm2.89-.09A6.32,6.32,0,0,0,122,86.81a4.7,4.7,0,0,0,3.74,1.59,4.51,4.51,0,0,0,3.69-1.55,6.84,6.84,0,0,0,1.27-4.45,6.9,6.9,0,0,0-1.27-4.47,4.48,4.48,0,0,0-3.69-1.55A4.65,4.65,0,0,0,122,78,6.72,6.72,0,0,0,120.61,82.47Z"/><path class="e61380ce-72b9-4aa0-9603-9e3dddaa5d5c" d="M149.06,77.21a3.34,3.34,0,0,0-1.94-.5,3.19,3.19,0,0,0-2.71,1.53,6.91,6.91,0,0,0-1.07,4.05v8.07h-2.83V74.42h2.83v3.24h.06c.8-2.35,2.2-3.52,4.18-3.52a3.84,3.84,0,0,1,1.48.22Z"/><path class="e61380ce-72b9-4aa0-9603-9e3dddaa5d5c" d="M167.31,83.11H156.15a5.77,5.77,0,0,0,1.4,3.94,4.88,4.88,0,0,0,3.71,1.39,7.91,7.91,0,0,0,4.91-1.71v2.52a9.48,9.48,0,0,1-5.58,1.49,6.83,6.83,0,0,1-5.4-2.2,8.88,8.88,0,0,1-1.94-6.08,8.72,8.72,0,0,1,2.13-6A6.79,6.79,0,0,1,160.66,74a6.15,6.15,0,0,1,4.89,2,8.24,8.24,0,0,1,1.76,5.63Zm-2.82-2.27a5.07,5.07,0,0,0-1-3.34,3.52,3.52,0,0,0-2.84-1.18,4,4,0,0,0-2.92,1.25,5.84,5.84,0,0,0-1.55,3.27Z"/><path class="e61380ce-72b9-4aa0-9603-9e3dddaa5d5c" d="M186.1,74.42l-5.34,8L186,90.36h-3.28l-3.05-5.07c-.16-.27-.39-.69-.69-1.24h-.06s-.25.47-.72,1.24l-3.1,5.07h-3.24l5.42-7.83-5.18-8.11h3.29l3,5.33c.18.33.4.75.66,1.27h.06l3.87-6.6Z"/><path class="e61380ce-72b9-4aa0-9603-9e3dddaa5d5c" d="M204.1,70.9a7.85,7.85,0,0,0-3.65-.9,5.43,5.43,0,0,0-4.66,2.53A12,12,0,0,0,194,79.42h.07a5.3,5.3,0,0,1,5.06-3.07,6,6,0,0,1,4.63,1.89,7.15,7.15,0,0,1,1.73,5,7.51,7.51,0,0,1-2,5.38,6.73,6.73,0,0,1-5.1,2.11,6.27,6.27,0,0,1-5.34-2.66c-1.29-1.78-1.94-4.29-1.94-7.55q0-5.91,2.55-9.4a7.91,7.91,0,0,1,6.69-3.48,8.84,8.84,0,0,1,3.74.65Zm-9.92,12.15a6.1,6.1,0,0,0,1.18,3.78,3.69,3.69,0,0,0,3.12,1.57,3.74,3.74,0,0,0,3-1.36,5.21,5.21,0,0,0,1.15-3.48A5.35,5.35,0,0,0,201.54,80a3.83,3.83,0,0,0-3.09-1.29,4,4,0,0,0-3.09,1.3A4.39,4.39,0,0,0,194.18,83.05Z"/><path class="e61380ce-72b9-4aa0-9603-9e3dddaa5d5c" d="M225.56,69l-8.73,21.35H213.9l8.3-19.84H211.05V68h14.51Z"/><path class="e61380ce-72b9-4aa0-9603-9e3dddaa5d5c" d="M236.27,78.61q-4-1.86-4-5.39a5,5,0,0,1,1.87-4,7.29,7.29,0,0,1,4.79-1.55,6.62,6.62,0,0,1,4.4,1.46,4.69,4.69,0,0,1,1.73,3.76q0,3.72-4.17,5.73v.05q4.89,1.77,4.89,6a5.43,5.43,0,0,1-2,4.43,8.58,8.58,0,0,1-5.62,1.66,7.06,7.06,0,0,1-4.81-1.63,5.37,5.37,0,0,1-1.86-4.23q0-4.26,4.78-6.21ZM238.46,80c-2.75,1.12-4.13,2.71-4.13,4.79a3.33,3.33,0,0,0,1.21,2.65,4.67,4.67,0,0,0,3.15,1,4.52,4.52,0,0,0,3.08-1A3.31,3.31,0,0,0,243,84.82Q243,81.58,238.46,80Zm3.75-6.75a3.07,3.07,0,0,0-.93-2.36,3.61,3.61,0,0,0-2.54-.87,3.74,3.74,0,0,0-2.55.91,2.86,2.86,0,0,0-1.06,2.29q0,2.81,3.51,4.26Q242.21,75.94,242.21,73.2Z"/><path class="e61380ce-72b9-4aa0-9603-9e3dddaa5d5c" d="M251.94,88.88a1.87,1.87,0,0,1,3.74,0,1.76,1.76,0,0,1-.54,1.29,1.8,1.8,0,0,1-1.35.54,1.76,1.76,0,0,1-1.32-.54A1.79,1.79,0,0,1,251.94,88.88Z"/><path class="e61380ce-72b9-4aa0-9603-9e3dddaa5d5c" d="M273.82,89.64a8.44,8.44,0,0,1-4.41,1.1,7.28,7.28,0,0,1-5.56-2.23,8,8,0,0,1-2.11-5.75A8.84,8.84,0,0,1,264,76.44a8,8,0,0,1,6.08-2.4,8.31,8.31,0,0,1,3.75.78v2.8a6.18,6.18,0,0,0-3.75-1.24,5.09,5.09,0,0,0-3.94,1.67,6.4,6.4,0,0,0-1.52,4.48,6.1,6.1,0,0,0,1.43,4.31,5,5,0,0,0,3.87,1.56A6.37,6.37,0,0,0,273.82,87Z"/><path class="e61380ce-72b9-4aa0-9603-9e3dddaa5d5c" d="M294.05,90.36h-2.81V81.29c0-3.28-1.2-4.91-3.59-4.91a3.88,3.88,0,0,0-3.06,1.38,5.15,5.15,0,0,0-1.2,3.5v9.1h-2.82V74.42h2.82v2.63h.06a5.75,5.75,0,0,1,5.24-3,4.84,4.84,0,0,1,4,1.68,7.6,7.6,0,0,1,1.37,4.89Z"/></g></g></svg>